<svg xmlns="http://www.w3.org/2000/svg" width="288" height="27" viewBox="0 0 288 27">
    <g fill="#FFF" fill-rule="evenodd">
        <path d="M33.095 8.983h-4.573V5.95h13.447v3.034h-4.675v12.26h-4.199zM45.875 5.95h5.075l5.92 15.292h-4.695l-1.043-3.072H45.13l-1.02 3.072h-4.157l5.922-15.293zm4.306 9.403l-1.94-6.416h-.055l-2.08 6.416h4.075zM58.491 5.95h4.222v12.288h6.73v3.004H58.49zM71.196 5.95h4.216v12.288h6.733v3.004h-10.95zM83.748 21.242h4.279V5.95h-4.28zM90.812 5.95h5.734l5.069 11.4-.043-11.4h3.64v15.292h-5.61l-5.177-11.88.044 11.88h-3.657zM108.312 5.95h4.216v6.714l4.802-6.714h4.927l-5.173 6.738 5.59 8.554h-5.157l-4.989-8.13v8.13h-4.216zM.36 13.472a.38.38 0 0 0 .15-.033c-.054.01-.113.019-.167.033h.016zM.038 12.948l.169-.17a.375.375 0 0 0-.17.17"/>
        <path d="M17.278 20.514l-.02-.002a.361.361 0 0 0-.152.037c-1.169.179-2.388-.297-3.22-1.399 0 0-5.964-8.593-5.97-8.593-1.295-1.788-3.586-1.981-5.109-.43l-2.6 2.652-.17.17a.366.366 0 0 0-.037.158.37.37 0 0 0 .343.366c.054-.014.112-.025.167-.035 1.166-.179 2.385.3 3.217 1.395l5.97 8.594c1.292 1.786 3.584 1.984 5.11.429l2.592-2.64.19-.203a.362.362 0 0 0-.311-.5M6.715 6.988c1.207-.249 2.49.211 3.359 1.352l5.678 8.124a1.28 1.28 0 0 0 1.972.176c.018-.02 5.361-5.467 6.672-6.802.058-.054.097-.093.14-.136.026-.06.052-.118.052-.192a.38.38 0 0 0-.029-.148l-.088-.134-2.71-3.91-.122-.167a.353.353 0 0 0-.217-.078.33.33 0 0 0-.174.049l-.125.136-3.542 3.601-3.35-4.762c-1.282-1.773-3.555-1.97-5.065-.425l-2.71 2.76-.006.002a.351.351 0 0 0-.093.234c0 .178.045.285.32.331l.038-.011zM148.932 16.372c.023.611.062 2.374 2.538 2.374.353 0 2.225 0 2.225-1.735 0-.723-.291-1.21-1.288-1.489l-3.677-.97c-1.047-.28-3.725-.994-3.725-4.2 0-1.508.678-2.954 2.222-3.855.992-.578 2.34-.93 4.097-.93 5.865 0 6.11 3.243 6.136 4.876h-4.224c0-.469.022-2.12-1.974-2.12-1.207 0-1.976.694-1.976 1.608 0 1.124.916 1.401 1.519 1.565l2.806.746c1.993.528 4.365 1.166 4.365 4.404 0 3.412-2.872 4.937-6.63 4.937-1.558 0-4.074-.252-5.449-1.821-1.101-1.23-1.12-2.734-1.145-3.39h4.18zM160.14 21.24h4.28V5.947H160.14zM167.208 5.947V21.24h8.613v-3.005h-4.39V5.946h-2.41zM190.921 5.946l-5.927 15.295h4.156l1.018-3.07h6.01l1.034 3.07h4.7l-5.927-15.295h-5.064zm2.3 2.985h.065l1.934 6.424h-4.074l2.075-6.424zM210.458 5.947V21.24h8.613v-3.005h-4.39V5.946h-2.383zM221.016 21.24h4.282V5.947h-4.282zM238.851 5.947l.043 11.401-5.075-11.401h-5.734V21.24h3.655l-.04-11.877 5.173 11.877h5.618V5.947zM245.447 5.99v15.25h11.434v-2.96h-7.322v-3.264h6.737V12.09h-6.737V8.914h7.156V5.991h-9.248zM180.102 5.947v10.277c0 .803 0 2.288-1.519 2.288-.607 0-1.117-.08-1.535-.204v3.144a9.07 9.07 0 0 0 1.535.13c1.393 0 3.407-.296 4.718-1.821.957-1.144 1.02-3.047 1.02-3.686V5.947H180.102zM273.299 6.671c-1.148 0-2.082.952-2.082 2.122h1.074c0-.567.452-1.027 1.008-1.027.555 0 1.006.46 1.006 1.027h1.075c0-1.17-.934-2.122-2.081-2.122"/>
        <path d="M285.832 10.947c-.149.713-.676 1.522-1.799 2.116v-2.336h1.834a2.45 2.45 0 0 1-.035.22m-.14-3.104l-9.71-4.567c-1.966-.88-3.824-1.004-5.373-.359-1.526.634-2.692 1.947-3.464 3.903-.269.678-.519 1.324-.767 1.973a432.166 432.166 0 0 0-2.289 6.201c-.615 1.689-1.347 3.703-2.283 6.248h2.065c.816-2.22 1.473-4.03 2.031-5.562 1.268-3.482 2.033-5.584 3.036-8.124.571-1.443 1.378-2.388 2.401-2.814 1.055-.438 2.513-.237 3.998.395 1.176.5 7.81 3.279 9.49 4.002h-4.662v1.588h2.31v2.924a9.092 9.092 0 0 1-2.204.26c-1.736 0-2.943-.663-3.624-1.186l-1.156 1.179c1.171 1.023 2.937 1.748 4.752 1.748.362 0 .708-.015 1.043-.042l1.66 5.632h2.018l-1.755-5.957c1.121-.304 1.88-.776 2.58-1.344 1.092-.886 1.79-2.2 1.79-3.449 0-.986-.328-1.881-1.888-2.649"/>
        <path fill-rule="nonzero" d="M132.85.754v25.684h1.084V.754z"/>
    </g>
</svg>
